<svg width="198" height="56" viewBox="0 0 198 56" fill="none" xmlns="http://www.w3.org/2000/svg">
<path d="M0 10C0 4.47715 4.47715 0 10 0H188C193.523 0 198 4.47715 198 10V46C198 51.5229 193.523 56 188 56H10C4.47715 56 0 51.5229 0 46V10Z" fill="#FFFBFB"/>
<path d="M32.9331 21.4H38.2131C41.4131 21.4 43.0131 22.8933 43.0131 25.88C43.0131 27.6533 42.3465 28.96 41.0131 29.8L42.9531 35H39.9331L38.3531 30.44H35.6931V35H32.9331V21.4ZM38.2531 28.08C38.8798 28.08 39.3598 27.8867 39.6931 27.5C40.0265 27.1 40.1931 26.5667 40.1931 25.9C40.1931 25.2333 40.0198 24.7133 39.6731 24.34C39.3265 23.9533 38.8398 23.76 38.2131 23.76H35.6931V28.08H38.2531ZM48.0955 23.8V26.98H52.9355V29.34H48.0955V32.6H54.1355V35H45.3355V21.4H54.1355V23.8H48.0955ZM61.2725 35.24C59.8725 35.24 58.7658 34.9933 57.9525 34.5C57.1525 34.0067 56.5792 33.2467 56.2325 32.22C55.8858 31.1933 55.7125 29.8333 55.7125 28.14C55.7125 26.4733 55.8925 25.1333 56.2525 24.12C56.6125 23.0933 57.1858 22.3467 57.9725 21.88C58.7725 21.4 59.8392 21.16 61.1725 21.16C62.4125 21.16 63.7525 21.3 65.1925 21.58L65.9125 21.72L65.8325 23.86C64.2858 23.6867 62.9792 23.6 61.9125 23.6C60.8592 23.6 60.0925 23.78 59.6125 24.14C59.1325 24.4867 58.8325 24.9667 58.7125 25.58C58.6058 26.18 58.5525 27.08 58.5525 28.28C58.5525 29.4667 58.6325 30.38 58.7925 31.02C58.9525 31.66 59.2392 32.1267 59.6525 32.42C60.0792 32.7 60.7058 32.84 61.5325 32.84C62.3192 32.84 62.8725 32.8133 63.1925 32.76V30.12H61.9525V27.72H65.9125V34.78C63.9658 35.0867 62.4192 35.24 61.2725 35.24ZM68.5191 21.4H71.2791V35H68.5191V21.4ZM78.2017 35.24C77.1617 35.24 75.8884 35.08 74.3817 34.76L73.6617 34.62L73.9417 32.48C75.7284 32.72 77.0951 32.84 78.0417 32.84C79.4551 32.84 80.1617 32.2533 80.1617 31.08C80.1617 30.6 79.9751 30.2467 79.6017 30.02C79.2284 29.7933 78.6017 29.5533 77.7217 29.3C76.6684 29.0067 75.8351 28.68 75.2217 28.32C74.6217 27.96 74.1817 27.5333 73.9017 27.04C73.6351 26.5467 73.5017 25.9333 73.5017 25.2C73.5017 23.8667 73.9084 22.86 74.7217 22.18C75.5351 21.5 76.6751 21.16 78.1417 21.16C78.7151 21.16 79.3084 21.2 79.9217 21.28C80.5351 21.3467 81.4351 21.4867 82.6217 21.7L82.4017 23.88C80.5751 23.6667 79.2484 23.56 78.4217 23.56C76.9684 23.56 76.2417 24.04 76.2417 25C76.2417 25.3333 76.3617 25.6067 76.6017 25.82C76.8417 26.0333 77.1417 26.2133 77.5017 26.36C77.8617 26.4933 78.4684 26.6933 79.3217 26.96C80.2417 27.2533 80.9551 27.56 81.4617 27.88C81.9684 28.2 82.3351 28.6 82.5617 29.08C82.7884 29.5467 82.9017 30.1533 82.9017 30.9C82.9017 32.3 82.4751 33.3733 81.6217 34.12C80.7817 34.8667 79.6417 35.24 78.2017 35.24ZM87.5406 23.84H83.9006V21.4H93.9006V23.84H90.3006V35H87.5406V23.84ZM98.408 23.8V26.98H103.248V29.34H98.408V32.6H104.448V35H95.648V21.4H104.448V23.8H98.408ZM106.722 21.4H112.002C115.202 21.4 116.802 22.8933 116.802 25.88C116.802 27.6533 116.136 28.96 114.802 29.8L116.742 35H113.722L112.142 30.44H109.482V35H106.722V21.4ZM112.042 28.08C112.669 28.08 113.149 27.8867 113.482 27.5C113.816 27.1 113.982 26.5667 113.982 25.9C113.982 25.2333 113.809 24.7133 113.462 24.34C113.116 23.9533 112.629 23.76 112.002 23.76H109.482V28.08H112.042ZM134.419 21.4V35H129.879L126.479 23.8H126.279V35H123.519V21.4H128.179L131.459 32.6H131.659V21.4H134.419ZM142.426 35.24C141.053 35.24 139.953 34.9933 139.126 34.5C138.3 34.0067 137.7 33.2533 137.326 32.24C136.966 31.2133 136.786 29.8867 136.786 28.26C136.786 26.62 136.966 25.2867 137.326 24.26C137.7 23.22 138.3 22.4467 139.126 21.94C139.953 21.42 141.053 21.16 142.426 21.16C143.8 21.16 144.9 21.42 145.726 21.94C146.553 22.4467 147.146 23.22 147.506 24.26C147.88 25.2867 148.066 26.62 148.066 28.26C148.066 29.86 147.886 31.1667 147.526 32.18C147.18 33.1933 146.593 33.96 145.766 34.48C144.94 34.9867 143.826 35.24 142.426 35.24ZM142.426 32.84C143.146 32.84 143.706 32.6933 144.106 32.4C144.52 32.0933 144.806 31.6133 144.966 30.96C145.14 30.2933 145.226 29.3933 145.226 28.26C145.226 27.1267 145.14 26.2267 144.966 25.56C144.793 24.88 144.5 24.38 144.086 24.06C143.686 23.7267 143.133 23.56 142.426 23.56C141.72 23.56 141.16 23.7267 140.746 24.06C140.346 24.38 140.06 24.88 139.886 25.56C139.713 26.2267 139.626 27.1267 139.626 28.26C139.626 29.3133 139.7 30.1667 139.846 30.82C139.993 31.4733 140.266 31.9733 140.666 32.32C141.08 32.6667 141.666 32.84 142.426 32.84ZM149.333 21.4H152.233L153.913 32.64H154.213L156.653 21.4H159.853L162.293 32.64H162.593L164.273 21.4H167.173L164.573 35H160.393L158.253 24.66L156.113 35H151.933L149.333 21.4Z" fill="black"/>
</svg>
